<svg xmlns="http://www.w3.org/2000/svg" width="256" height="256" fill="none" viewBox="-2.4 -2.4 28.8 28.8"><path fill="#1b6e6d" stroke-width="0" d="M14.099-1.806a4.05 4.05 0 0 0-4.198 0L.451 3.922A4.05 4.05 0 0 0-1.5 7.385v9.23a4.05 4.05 0 0 0 1.951 3.463l9.45 5.728a4.05 4.05 0 0 0 4.198 0l9.45-5.728a4.05 4.05 0 0 0 1.951-3.463v-9.23a4.05 4.05 0 0 0-1.951-3.463l-9.45-5.728z"/><g stroke="#fff" stroke-linecap="round" stroke-width="1.5"><path d="m16 11 1.697 1.527c1.542 1.388 2.313 2.082 2.313 2.973 0 .89-.771 1.585-2.314 2.973L16 20M13.987 5l-1.994 7.5L10 20M8 4.83 6.304 6.356C4.76 7.745 3.99 8.44 3.99 9.33c0 .89.771 1.585 2.314 2.973L8 13.83"/></g></svg>