<svg xmlns="http://www.w3.org/2000/svg" width="64" height="64" viewBox="-2.4 -2.4 28.8 28.8">
  <style>
    .contacts__list-item a:hover .background {
      fill: #1b6e6d;
    }
  </style>
  <path class="background" fill="#c2c6dd" stroke-width="0" d="M14.099-1.806a4.05 4.05 0 0 0-4.198 0L.451 3.922A4.05 4.05 0 0 0-1.5 7.385v9.23a4.05 4.05 0 0 0 1.951 3.463l9.45 5.728a4.05 4.05 0 0 0 4.198 0l9.45-5.728a4.05 4.05 0 0 0 1.951-3.463v-9.23a4.05 4.05 0 0 0-1.951-3.463l-9.45-5.728z"/>
  <path class="symbol" d="M22 5v4l-10 4L2 9V5a1 1 0 0 1 1-1h18a1 1 0 0 1 1 1ZM2 11.154V19a1 1 0 0 0 1 1h18a1 1 0 0 0 1-1v-7.846l-10 4Z"/>
</svg>
