<svg xmlns="http://www.w3.org/2000/svg" xml:space="preserve" width="64" height="64" viewBox="-2.4 -2.4 28.8 28.8"><path fill="#c2c6dd" stroke-width="0" d="M14.099-1.806a4.05 4.05 0 0 0-4.198 0L.451 3.922A4.05 4.05 0 0 0-1.5 7.385v9.23a4.05 4.05 0 0 0 1.951 3.463l9.45 5.728a4.05 4.05 0 0 0 4.198 0l9.45-5.728a4.05 4.05 0 0 0 1.951-3.463v-9.23a4.05 4.05 0 0 0-1.951-3.463l-9.45-5.728z"/><path d="M19.2 4.4 2.9 10.7c-1.1.4-1.1 1.1-.2 1.3l4.1 1.3 1.6 4.8c.2.5.1.7.6.7.4 0 .6-.2.8-.4l2-2 4.2 3.1c.8.4 1.3.2 1.5-.7l2.8-13.1c.3-1.1-.4-1.7-1.1-1.3zm-2.1 3-7.8 7.1-.3 3.3L7.4 13l9.2-5.8c.4-.3.8-.1.5.2z"/><path d="M0 0h24v24H0z" style="fill:none"/></svg>